<svg width="50" height="50" viewBox="0 0 50 50" fill="none" xmlns="http://www.w3.org/2000/svg">
<rect x="0.5" y="0.5" width="49" height="49" rx="24.5" fill="url(#paint0_linear_14_784)" fill-opacity="0.64"/>
<rect x="0.5" y="0.5" width="49" height="49" rx="24.5" stroke="url(#paint1_linear_14_784)"/>
<path d="M34 23H16C15.45 23 15 23.45 15 24V29.19C15 29.39 15.01 29.59 15.03 29.79C15.23 32.87 17.13 34.77 20.21 34.97C20.41 34.99 20.61 35 20.81 35H29.19C29.39 35 29.59 34.99 29.79 34.97C32.87 34.77 34.77 32.87 34.97 29.79C34.99 29.59 35 29.39 35 29.19V24C35 23.45 34.55 23 34 23ZM21 29.15C21.34 29.65 21.8 30.06 22.33 30.33C22.71 30.51 22.86 30.96 22.67 31.34C22.54 31.6 22.27 31.75 22 31.75C21.89 31.75 21.77 31.72 21.67 31.67C20.89 31.29 20.23 30.7 19.76 29.99C19.36 29.39 19.36 28.61 19.76 28.01C20.23 27.3 20.89 26.71 21.67 26.33C22.04 26.14 22.49 26.29 22.67 26.66C22.86 27.04 22.71 27.49 22.33 27.67C21.8 27.94 21.34 28.35 21 28.85C20.94 28.94 20.94 29.06 21 29.15ZM30.45 29.99C29.97 30.7 29.31 31.29 28.54 31.67C28.43 31.72 28.32 31.75 28.21 31.75C27.93 31.75 27.67 31.6 27.54 31.34C27.35 30.96 27.5 30.51 27.87 30.33C28.41 30.06 28.87 29.65 29.2 29.15C29.27 29.06 29.27 28.94 29.2 28.85C28.87 28.35 28.41 27.94 27.87 27.67C27.5 27.49 27.35 27.04 27.54 26.66C27.72 26.29 28.17 26.14 28.54 26.33C29.31 26.71 29.97 27.3 30.45 28.01C30.85 28.61 30.85 29.39 30.45 29.99Z" fill="white"/>
<path d="M35 20.81V21C35 21.55 34.55 22 34 22L16 22.01C15.45 22.01 15 21.56 15 21.01V20.81C15 20.61 15.01 20.41 15.03 20.21C15.23 17.13 17.13 15.23 20.21 15.03C20.41 15.01 20.61 15 20.81 15H29.19C29.39 15 29.59 15.01 29.79 15.03C32.87 15.23 34.77 17.13 34.97 20.21C34.99 20.41 35 20.61 35 20.81Z" fill="white"/>
<defs>
<linearGradient id="paint0_linear_14_784" x1="1.81153e-06" y1="-13.5" x2="25" y2="50" gradientUnits="userSpaceOnUse">
<stop stop-color="#1461CC" stop-opacity="0.69"/>
<stop offset="1" stop-color="white"/>
</linearGradient>
<linearGradient id="paint1_linear_14_784" x1="9" y1="-2.28286e-07" x2="19.5" y2="25" gradientUnits="userSpaceOnUse">
<stop stop-color="white"/>
<stop offset="1" stop-color="white" stop-opacity="0"/>
</linearGradient>
</defs>
</svg>
