<svg width="50" height="50" viewBox="0 0 50 50" fill="none" xmlns="http://www.w3.org/2000/svg">
<rect x="0.5" y="0.5" width="49" height="49" rx="24.5" fill="url(#paint0_linear_14_519)" fill-opacity="0.64"/>
<rect x="0.5" y="0.5" width="49" height="49" rx="24.5" stroke="url(#paint1_linear_14_519)"/>
<path d="M33 27.25C34.2426 27.25 35.25 26.2426 35.25 25C35.25 23.7574 34.2426 22.75 33 22.75C31.7574 22.75 30.75 23.7574 30.75 25C30.75 26.2426 31.7574 27.25 33 27.25Z" fill="white"/>
<path d="M33 19.25C34.2426 19.25 35.25 18.2426 35.25 17C35.25 15.7574 34.2426 14.75 33 14.75C31.7574 14.75 30.75 15.7574 30.75 17C30.75 18.2426 31.7574 19.25 33 19.25Z" fill="white"/>
<path d="M33 35.25C34.2426 35.25 35.25 34.2426 35.25 33C35.25 31.7574 34.2426 30.75 33 30.75C31.7574 30.75 30.75 31.7574 30.75 33C30.75 34.2426 31.7574 35.25 33 35.25Z" fill="white"/>
<path d="M17 27.25C18.2426 27.25 19.25 26.2426 19.25 25C19.25 23.7574 18.2426 22.75 17 22.75C15.7574 22.75 14.75 23.7574 14.75 25C14.75 26.2426 15.7574 27.25 17 27.25Z" fill="white"/>
<path d="M32 25.75C32.41 25.75 32.75 25.41 32.75 25C32.75 24.59 32.41 24.25 32 24.25H24.75V20C24.75 18.42 25.42 17.75 27 17.75H32C32.41 17.75 32.75 17.41 32.75 17C32.75 16.59 32.41 16.25 32 16.25H27C24.58 16.25 23.25 17.58 23.25 20V24.25H18C17.59 24.25 17.25 24.59 17.25 25C17.25 25.41 17.59 25.75 18 25.75H23.25V30C23.25 32.42 24.58 33.75 27 33.75H32C32.41 33.75 32.75 33.41 32.75 33C32.75 32.59 32.41 32.25 32 32.25H27C25.42 32.25 24.75 31.58 24.75 30V25.75H32Z" fill="white"/>
<defs>
<linearGradient id="paint0_linear_14_519" x1="1.81153e-06" y1="-13.5" x2="25" y2="50" gradientUnits="userSpaceOnUse">
<stop stop-color="#1461CC" stop-opacity="0.69"/>
<stop offset="1" stop-color="white"/>
</linearGradient>
<linearGradient id="paint1_linear_14_519" x1="9" y1="-2.28286e-07" x2="19.5" y2="25" gradientUnits="userSpaceOnUse">
<stop stop-color="white"/>
<stop offset="1" stop-color="white" stop-opacity="0"/>
</linearGradient>
</defs>
</svg>
