<svg width="50" height="50" viewBox="0 0 50 50" fill="none" xmlns="http://www.w3.org/2000/svg">
<rect x="0.5" y="0.5" width="49" height="49" rx="24.5" fill="url(#paint0_linear_14_1239)" fill-opacity="0.64"/>
<rect x="0.5" y="0.5" width="49" height="49" rx="24.5" stroke="url(#paint1_linear_14_1239)"/>
<path d="M34.56 23.7401L33.2 22.1601C32.94 21.8601 32.73 21.3001 32.73 20.9001V19.2001C32.73 18.1401 31.86 17.2701 30.8 17.2701H29.1C28.71 17.2701 28.14 17.0601 27.84 16.8001L26.26 15.4401C25.57 14.8501 24.44 14.8501 23.74 15.4401L22.17 16.8101C21.87 17.0601 21.3 17.2701 20.91 17.2701H19.18C18.12 17.2701 17.25 18.1401 17.25 19.2001V20.9101C17.25 21.3001 17.04 21.8601 16.79 22.1601L15.44 23.7501C14.86 24.4401 14.86 25.5601 15.44 26.2501L16.79 27.8401C17.04 28.1401 17.25 28.7001 17.25 29.0901V30.8001C17.25 31.8601 18.12 32.7301 19.18 32.7301H20.91C21.3 32.7301 21.87 32.9401 22.17 33.2001L23.75 34.5601C24.44 35.1501 25.57 35.1501 26.27 34.5601L27.85 33.2001C28.15 32.9401 28.71 32.7301 29.11 32.7301H30.81C31.87 32.7301 32.74 31.8601 32.74 30.8001V29.1001C32.74 28.7101 32.95 28.1401 33.21 27.8401L34.57 26.2601C35.15 25.5701 35.15 24.4301 34.56 23.7401ZM29.68 25.0001L28.51 28.5601C28.36 29.1501 27.73 29.6301 27.09 29.6301H25.24C24.92 29.6301 24.47 29.5201 24.27 29.3201L22.8 28.1701C22.77 28.8101 22.48 29.0801 21.77 29.0801H21.29C20.55 29.0801 20.25 28.7901 20.25 28.0901V23.3101C20.25 22.6101 20.55 22.3201 21.29 22.3201H21.78C22.52 22.3201 22.82 22.6101 22.82 23.3101V23.6701L24.76 20.7901C24.96 20.4801 25.47 20.2601 25.9 20.4301C26.37 20.5901 26.67 21.1101 26.57 21.5701L26.33 23.1301C26.31 23.2701 26.34 23.4001 26.43 23.5001C26.51 23.5901 26.63 23.6501 26.76 23.6501H28.71C29.09 23.6501 29.41 23.8001 29.6 24.0701C29.77 24.3301 29.8 24.6601 29.68 25.0001Z" fill="white"/>
<defs>
<linearGradient id="paint0_linear_14_1239" x1="1.81153e-06" y1="-13.5" x2="25" y2="50" gradientUnits="userSpaceOnUse">
<stop stop-color="#1461CC" stop-opacity="0.69"/>
<stop offset="1" stop-color="white"/>
</linearGradient>
<linearGradient id="paint1_linear_14_1239" x1="9" y1="-2.28286e-07" x2="19.5" y2="25" gradientUnits="userSpaceOnUse">
<stop stop-color="white"/>
<stop offset="1" stop-color="white" stop-opacity="0"/>
</linearGradient>
</defs>
</svg>
