<svg width="50" height="50" viewBox="0 0 50 50" fill="none" xmlns="http://www.w3.org/2000/svg">
<rect x="0.5" y="0.5" width="49" height="49" rx="24.5" fill="url(#paint0_linear_14_913)" fill-opacity="0.64"/>
<rect x="0.5" y="0.5" width="49" height="49" rx="24.5" stroke="url(#paint1_linear_14_913)"/>
<path d="M31.47 29.83L31.86 32.99C31.96 33.82 31.07 34.4 30.36 33.97L26.9 31.91C26.66 31.77 26.6 31.47 26.73 31.23C27.23 30.31 27.5 29.27 27.5 28.23C27.5 24.57 24.36 21.59 20.5 21.59C19.71 21.59 18.94 21.71 18.22 21.95C17.85 22.07 17.49 21.73 17.58 21.35C18.49 17.71 21.99 15 26.17 15C31.05 15 35 18.69 35 23.24C35 25.94 33.61 28.33 31.47 29.83Z" fill="white"/>
<path d="M26 28.23C26 29.42 25.56 30.52 24.82 31.39C23.83 32.59 22.26 33.36 20.5 33.36L17.89 34.91C17.45 35.18 16.89 34.81 16.95 34.3L17.2 32.33C15.86 31.4 15 29.91 15 28.23C15 26.47 15.94 24.92 17.38 24C18.27 23.42 19.34 23.09 20.5 23.09C23.54 23.09 26 25.39 26 28.23Z" fill="white"/>
<defs>
<linearGradient id="paint0_linear_14_913" x1="1.81153e-06" y1="-13.5" x2="25" y2="50" gradientUnits="userSpaceOnUse">
<stop stop-color="#1461CC" stop-opacity="0.69"/>
<stop offset="1" stop-color="white"/>
</linearGradient>
<linearGradient id="paint1_linear_14_913" x1="9" y1="-2.28286e-07" x2="19.5" y2="25" gradientUnits="userSpaceOnUse">
<stop stop-color="white"/>
<stop offset="1" stop-color="white" stop-opacity="0"/>
</linearGradient>
</defs>
</svg>
